<?xml version="1.0" encoding="utf-8"?>
<!-- Generator: Adobe Illustrator 21.1.0, SVG Export Plug-In . SVG Version: 6.00 Build 0)  -->
<svg version="1.1" id="Layer_1" xmlns="http://www.w3.org/2000/svg" xmlns:xlink="http://www.w3.org/1999/xlink" x="0px" y="0px"
	 viewBox="0 0 204 30" style="enable-background:new 0 0 204 30;" xml:space="preserve">
<style type="text/css">
	.st0{fill:#FFFFFF;}
</style>
<g>
	<path class="st0" d="M13,27.6c-1.4,1.4-3.3,2.1-5.4,2.1c-2.2,0-4.1-0.7-5.5-2.1c-1.3-1.3-2-3.2-2-5.4V0h4.6v22.4
		c0,2.1,1.3,3.1,2.9,3.1s2.8-1,2.8-3.1V0H15v22.1C15,24.4,14.2,26.3,13,27.6z"/>
	<path class="st0" d="M22,4.9V0.1h4.8v4.8H22z M22.2,29.4V8.3h4.4v21.2h-4.4V29.4z"/>
	<path class="st0" d="M42,4.2v25.2h-4.6V4.2h-4.9V0H47v4.2H42z"/>
</g>
<polygon class="st0" points="59.5,0.1 48.6,29.7 50.7,29.7 61.6,0.1 "/>
<path class="st0" d="M70.9,11.8l-2.7-7.9v7.9h-1.3V0.1h1.2L70.8,8V0.1h1.3v11.6L70.9,11.8L70.9,11.8z"/>
<path class="st0" d="M78.2,11c-0.4,0.5-1,0.8-1.8,0.8S75,11.5,74.6,11c-0.7-0.9-0.8-2.2-0.8-5.1s0-4.2,0.8-5.1C75,0.3,75.6,0,76.4,0
	s1.4,0.3,1.8,0.8c0.7,0.9,0.7,2.2,0.7,5.1S78.9,10.2,78.2,11z M77.2,1.7c-0.2-0.3-0.4-0.4-0.9-0.4c-0.4,0-0.7,0.2-0.9,0.4
	C75,2.3,75,3.2,75,5.9s0.1,3.7,0.4,4.2c0.2,0.3,0.4,0.4,0.9,0.4c0.4,0,0.7-0.2,0.9-0.4c0.4-0.6,0.4-1.5,0.4-4.2S77.6,2.3,77.2,1.7z"
	/>
<path class="st0" d="M84.5,11.8l-1.4-5H82v5h-1.3V0.1h2.4c1.6,0,2.5,0.8,2.5,3.3c0,1.6-0.4,2.6-1.3,3l1.6,5.3h-1.4V11.8z M83.1,1.4
	H82v4.1h1.1c1,0,1.2-0.8,1.2-2.1C84.3,2.2,84,1.4,83.1,1.4z"/>
<path class="st0" d="M90.2,11.9c-0.8,0-1.4-0.3-1.8-0.8c-0.7-0.9-0.8-2.2-0.8-5.1s0-4.2,0.8-5.1c0.4-0.5,1-0.8,1.8-0.8
	c0.7,0,1.3,0.3,1.7,0.7c0.5,0.6,0.7,1.4,0.7,2.3h-1.3c0-0.8-0.2-1.8-1.2-1.8c-0.4,0-0.7,0.2-0.9,0.4c-0.4,0.6-0.4,1.5-0.4,4.2
	s0.1,3.7,0.4,4.2c0.2,0.3,0.4,0.4,0.9,0.4c0.7,0,1.2-0.7,1.2-1.6V6.7h-1.2V5.5h2.4V9C92.7,10.9,91.6,11.9,90.2,11.9z"/>
<path class="st0" d="M95,11.8V0.1h4v1.3h-2.8v3.9h2.4v1.3h-2.4v4H99v1.3h-4V11.8z"/>
<path class="st0" d="M105.8,11.2c-0.4,0.4-1,0.7-1.9,0.7c-0.8,0-1.4-0.2-1.8-0.7c-0.5-0.5-0.6-1.2-0.6-2.4h1.3
	c0,0.8,0.1,1.2,0.4,1.5c0.2,0.2,0.5,0.4,0.9,0.4s0.7-0.1,0.9-0.4c0.3-0.3,0.3-0.8,0.3-1.6c0-1.3-0.2-1.7-1-2.1L102.9,6
	c-1.1-0.5-1.4-1.1-1.4-2.9c0-1,0.3-1.8,0.8-2.4c0.4-0.4,1-0.7,1.7-0.7c0.8,0,1.3,0.2,1.7,0.7c0.5,0.6,0.7,1.3,0.7,2.4h-1.3
	c0-0.6-0.1-1-0.3-1.4c-0.2-0.2-0.5-0.4-0.9-0.4s-0.6,0.1-0.8,0.4c-0.3,0.3-0.4,0.8-0.4,1.4c0,1.1,0.2,1.5,1,1.9l1.2,0.5
	c1.2,0.5,1.5,1.4,1.5,3.2C106.4,9.8,106.3,10.6,105.8,11.2z"/>
<path class="st0" d="M115.9,11.8L115.4,9H113l-0.5,2.7h-1.3l2.4-11.6h1.2l2.4,11.6h-1.3V11.8z M114.2,2.4l-1,5.4h2L114.2,2.4z"/>
<path class="st0" d="M123.1,11.8l-1.4-5h-1.1v5h-1.3V0.1h2.4c1.6,0,2.5,0.8,2.5,3.3c0,1.6-0.4,2.6-1.3,3l1.6,5.3h-1.4V11.8z
	 M121.6,1.4h-1.1v4.1h1.1c1,0,1.2-0.8,1.2-2.1C122.8,2.2,122.6,1.4,121.6,1.4z"/>
<path class="st0" d="M131,11.8l-1.8-5.3l-0.9,2v3.2H127V0.1h1.3V6l2.5-5.9h1.3L130,4.9l2.4,6.8L131,11.8L131,11.8z"/>
<path class="st0" d="M136.8,1.4v10.4h-1.3V1.4h-1.8V0.1h4.8v1.3H136.8z"/>
<path class="st0" d="M140.8,11.8V0.1h1.3v11.6L140.8,11.8L140.8,11.8z"/>
<path class="st0" d="M148.9,11.2c-0.4,0.4-1,0.7-1.9,0.7c-0.8,0-1.4-0.2-1.8-0.7c-0.5-0.5-0.6-1.2-0.6-2.4h1.3
	c0,0.8,0.1,1.2,0.4,1.5c0.2,0.2,0.5,0.4,0.9,0.4s0.7-0.1,0.9-0.4c0.3-0.3,0.3-0.8,0.3-1.6c0-1.3-0.2-1.7-1-2.1L146.1,6
	c-1.1-0.5-1.4-1.1-1.4-2.9c0-1,0.3-1.8,0.8-2.4c0.4-0.4,1-0.7,1.7-0.7c0.8,0,1.3,0.2,1.7,0.7c0.5,0.6,0.7,1.3,0.7,2.4h-1.3
	c0-0.6-0.1-1-0.3-1.4c-0.2-0.2-0.5-0.4-0.9-0.4s-0.6,0.1-0.8,0.4C146,2,145.9,2.4,145.9,3c0,1.1,0.2,1.5,1,1.9l1.2,0.5
	c1.2,0.5,1.5,1.4,1.5,3.2C149.6,9.8,149.4,10.6,148.9,11.2z"/>
<path class="st0" d="M156.2,11.8l-1.9-5.3l-0.9,2v3.2h-1.3V0.1h1.3V6l2.5-5.9h1.3l-2.1,4.8l2.4,6.8L156.2,11.8L156.2,11.8z"/>
<path class="st0" d="M159.6,11.8V0.1h4v1.3h-2.8v3.9h2.4v1.3h-2.4v4h2.8v1.3h-4V11.8z"/>
<path class="st0" d="M71,29.3c-0.5,0.5-1.1,0.8-1.7,0.8c-0.7,0-1.3-0.3-1.7-0.8c-0.4-0.5-0.7-1.2-0.7-2v-9h1.3v9.1
	c0,0.9,0.5,1.4,1.1,1.4s1.2-0.5,1.2-1.4v-9.1h1.3v9C71.7,28.1,71.4,28.8,71,29.3z"/>
<path class="st0" d="M77.6,29.9L74.9,22v7.9h-1.3V18.3h1.2l2.7,7.9v-7.9h1.3v11.6H77.6z"/>
<path class="st0" d="M81.7,29.9V18.3H83v11.6H81.7z"/>
<path class="st0" d="M88.4,29.9h-1.3l-2.3-11.6h1.4l1.5,9.4l1.5-9.4h1.4L88.4,29.9z"/>
<path class="st0" d="M92.7,29.9V18.3h4v1.3H94v3.9h2.4v1.3H94v4h2.8v1.3h-4.1V29.9z"/>
<path class="st0" d="M102.9,29.9l-1.4-5h-1.1v5H99V18.3h2.4c1.6,0,2.5,0.8,2.5,3.3c0,1.6-0.4,2.6-1.3,3l1.6,5.3
	C104.2,29.9,102.9,29.9,102.9,29.9z M101.4,19.6h-1.1v4.1h1.1c1,0,1.2-0.8,1.2-2.1C102.6,20.4,102.4,19.6,101.4,19.6z"/>
<path class="st0" d="M110.4,29.3c-0.4,0.4-1,0.7-1.9,0.7c-0.8,0-1.4-0.2-1.8-0.7c-0.5-0.5-0.6-1.2-0.6-2.5h1.3
	c0,0.8,0.1,1.2,0.4,1.5c0.2,0.2,0.5,0.4,0.9,0.4s0.7-0.1,0.9-0.4c0.3-0.3,0.3-0.8,0.3-1.5c0-1.3-0.2-1.7-1-2.1l-1.2-0.5
	c-1.1-0.5-1.4-1.1-1.4-2.9c0-1,0.3-1.8,0.8-2.4c0.4-0.4,1-0.7,1.7-0.7c0.8,0,1.3,0.2,1.7,0.7c0.5,0.6,0.7,1.3,0.7,2.4h-1.3
	c0-0.6-0.1-1-0.3-1.4c-0.2-0.2-0.5-0.4-0.9-0.4s-0.6,0.1-0.8,0.4c-0.2,0.3-0.4,0.8-0.4,1.4c0,1.1,0.2,1.5,1,1.9l1.2,0.5
	c1.2,0.5,1.5,1.4,1.5,3.2C111,28,110.9,28.8,110.4,29.3z"/>
<path class="st0" d="M113.3,29.9V18.3h1.3v11.6H113.3z"/>
<path class="st0" d="M119.3,19.6V30H118V19.6h-1.8v-1.3h4.8v1.3H119.3z"/>
<path class="st0" d="M122.8,29.9V18.3h4v1.3H124v3.9h2.4v1.3H124v4h2.8v1.3h-4V29.9z"/>
<path class="st0" d="M131.6,19.6V30h-1.3V19.6h-1.8v-1.3h4.8v1.3H131.6z"/>
</svg>
